<?xml version="1.0" encoding="UTF-8" standalone="no"?>
<svg
   id="_图层_1"
   data-name=" 图层 1"
   viewBox="0 0 446 349.5"
   version="1.1"
   sodipodi:docname="background.svg"
   xml:space="preserve"
   inkscape:version="1.3.2 (091e20e, 2023-11-25, custom)"
   xmlns:inkscape="http://www.inkscape.org/namespaces/inkscape"
   xmlns:sodipodi="http://sodipodi.sourceforge.net/DTD/sodipodi-0.dtd"
   xmlns="http://www.w3.org/2000/svg"
   xmlns:svg="http://www.w3.org/2000/svg"><sodipodi:namedview
     id="namedview39"
     pagecolor="#ffffff"
     bordercolor="#000000"
     borderopacity="0.25"
     inkscape:showpageshadow="2"
     inkscape:pageopacity="0.0"
     inkscape:pagecheckerboard="0"
     inkscape:deskcolor="#d1d1d1"
     inkscape:zoom="2.4703215"
     inkscape:cx="388.81578"
     inkscape:cy="191.67545"
     inkscape:window-width="2560"
     inkscape:window-height="1494"
     inkscape:window-x="-11"
     inkscape:window-y="1285"
     inkscape:window-maximized="1"
     inkscape:current-layer="g39" /><defs
     id="defs2"><style
       id="style1">
      .cls-1 {
        fill: #f0f9ff;
      }

      .cls-1, .cls-2, .cls-3, .cls-4, .cls-5, .cls-6, .cls-7, .cls-8, .cls-9, .cls-10, .cls-11, .cls-12, .cls-13, .cls-14, .cls-15, .cls-16, .cls-17 {
        stroke-width: 0px;
      }

      .cls-2 {
        fill: #dceff9;
      }

      .cls-3 {
        fill: none;
      }

      .cls-4 {
        fill: url(#_未命名的渐变_2);
      }

      .cls-5 {
        fill: #e6f6ff;
      }

      .cls-6 {
        fill: #f7fafc;
      }

      .cls-7 {
        fill: rgba(234, 235, 237, .5);
      }

      .cls-7, .cls-16 {
        fill-rule: evenodd;
      }

      .cls-8 {
        fill: #e4f2f9;
      }

      .cls-9 {
        fill: rgba(245, 251, 255, .5);
      }

      .cls-18 {
        clip-path: url(#clippath);
      }

      .cls-10 {
        fill: #f1fafe;
      }

      .cls-19 {
        mask: url(#mask);
      }

      .cls-11, .cls-16 {
        fill: #b4d0e4;
      }

      .cls-12 {
        fill: #edf5f9;
      }

      .cls-13 {
        fill: #eaebed;
      }

      .cls-14 {
        fill: #edf8fe;
      }

      .cls-15 {
        fill: #e8f6ff;
      }

      .cls-17 {
        fill: #f4fbff;
      }
    </style><clipPath
       id="clippath"><rect
         class="cls-3"
         width="446"
         height="349.5"
         id="rect1" /></clipPath><linearGradient
       id="_未命名的渐变_2"
       data-name="未命名的渐变 2"
       x1="314.07"
       y1="308.15"
       x2="137.29"
       y2="49.2"
       gradientUnits="userSpaceOnUse"><stop
         offset="0"
         stop-color="#fff"
         id="stop1" /><stop
         offset=".7"
         stop-color="#231815"
         id="stop2" /></linearGradient><mask
       id="mask"
       x="0"
       y="0"
       width="446"
       height="349.5"
       maskUnits="userSpaceOnUse"><rect
         class="cls-4"
         width="446"
         height="349.5"
         id="rect2" /></mask></defs><g
     class="cls-18"
     clip-path="url(#clippath)"
     id="g39"><g
       id="g38"><g
         id="g30"><path
           class="cls-2"
           d="M377,349.5h38.5l-19.4-28.5-19.1,28.5Z"
           id="path2" /><path
           class="cls-7"
           d="M206,253.5l-4.6-6.7-4.4,6.7h9Z"
           id="path3" /><g
           class="cls-19"
           mask="url(#mask)"
           id="g18"><g
             id="g17"><path
               class="cls-5"
               d="M206,253.5h135l-36.8-53.5-32.6-47.5-65.6,101Z"
               id="path4" /><path
               class="cls-2"
               d="M350,253.5l-65,96h92l19.1-28.5-46.1-67.5Z"
               id="path5" /><path
               class="cls-15"
               d="M423.5,146.5l-73.5,107,46.1,67.5,49.9-74.5v-66l-22.5-34Z"
               id="path6" /><path
               class="cls-8"
               d="M446,324.5v-78l-49.9,74.5,19.4,28.5h14l16.5-25Z"
               id="path7" /><path
               class="cls-1"
               d="M446,349.5v-25l-16.5,25h16.5Z"
               id="path8" /><path
               class="cls-14"
               d="M267.5,146.5h-134l67.9,100.3,66.1-100.3Z"
               id="path9" /><path
               class="cls-9"
               d="M175.2,253.5h21.8l4.4-6.7-67.9-100.3-16,23.5,57.7,83.5Z"
               id="path10" /><path
               class="cls-10"
               d="M281.5,146.5h-6l33,47.4,32.6-47.4h-59.6Z"
               id="path11" /><path
               class="cls-10"
               d="M350,253.5l73.5-107h-82.4l-32.6,47.4,41.5,59.6Z"
               id="path12" /><path
               class="cls-12"
               d="M419.2,33L396.5,0l-24.5,39.3h42.9l4.3-6.3h0Z"
               id="path13" /><path
               class="cls-12"
               d="M423.5,39.3l-4.3-6.3-4.3,6.3h8.6,0Z"
               id="path14" /><path
               class="cls-17"
               d="M74.5,39.3l71.5,107.2,65.6-100.5-4.6-6.7H74.5Z"
               id="path15" /><path
               class="cls-17"
               d="M216,39.3h-9l4.6,6.7,4.4-6.7Z"
               id="path16" /><path
               class="cls-6"
               d="M353.5,39.3h-137.5l-4.4,6.7,69.9,100.5s72-107.2,72-107.2Z"
               id="path17" /></g></g><path
           class="cls-13"
           d="M0,0l27.1,39.3h37.9L37,0H0Z"
           id="path18" /><path
           class="cls-13"
           d="M65,39.3L90.5,0h-53.5l28,39.3Z"
           id="path19" /><path
           class="cls-13"
           d="M117.5,170l16-23.5h12.5L74.5,39.3h132.5L183,0h-92.5l-25.5,39.3H27.1l90.3,130.7h.1Z"
           id="path20" /><path
           class="cls-13"
           d="M207,39.3h9L243.5,0h-60.5l24,39.3Z"
           id="path21" /><path
           class="cls-13"
           d="M216,39.3h156L338,0h-94.5l-27.5,39.3Z"
           id="path22" /><path
           class="cls-13"
           d="M267.5,146.5h14l-69.9-100.5-65.6,100.5h121.5Z"
           id="path23" /><path
           class="cls-13"
           d="M353.5,39.3l-72,107.2h59.6l73.8-107.2h-61.4Z"
           id="path24" /><path
           class="cls-13"
           d="M372,39.3L396.5,0h-58.5l34,39.3Z"
           id="path25" /><path
           class="cls-13"
           d="M446,180.5v-108.5l-22.5-32.7h-8.6l-73.8,107.2h82.4l22.5,34h0Z"
           id="path26" /><path
           class="cls-13"
           d="M241.5,349.5h43.5l65-96-41.5-59.6-4.2,6.1,36.8,53.5h-165.8l66.3,96h-.1Z"
           id="path27" /><path
           class="cls-13"
           d="M206,253.5l65.6-101-4.1-6-66.1,100.3,4.6,6.7Z"
           id="path28" /><path
           class="cls-13"
           d="M308.5,193.9l-33-47.4-3.9,6,32.6,47.5,4.2-6.1h.1Z"
           id="path29" /><path
           class="cls-13"
           d="M275.5,146.5h-8l4.1,6,3.9-6Z"
           id="path30" /></g></g><path
       style="fill:#b4d0e4;fill-opacity:1;stroke-width:0.404806"
       d="m 412.6641,262.60996 c -6.68025,-2.38129 -11.13911,-8.54481 -10.55078,-14.58442 0.2509,-2.57561 1.9191,-5.62937 3.37824,-6.18413 1.72444,-0.65564 2.1476,0.0976 2.14831,3.82395 7.9e-4,4.11637 0.74577,5.80704 3.03541,6.8886 2.73727,1.29301 4.746,1.31774 6.85065,0.0843 2.54056,-1.48886 4.05171,-4.13476 4.05949,-7.1078 0.005,-1.85105 -0.43142,-3.27123 -2.50009,-8.13883 -4.15617,-9.77943 -4.9692,-12.59595 -4.9692,-17.21435 0,-2.18106 0.29412,-6.12571 0.65361,-8.76588 0.35948,-2.64017 0.57755,-4.87637 0.48459,-4.96932 -0.0929,-0.093 -1.61668,0.39459 -3.38604,1.08343 -4.36087,1.69776 -11.27535,3.40597 -17.0544,4.21326 -4.66073,0.65108 -6.56776,0.64235 -15.11716,-0.0692 -3.48649,-0.29016 -6.60296,0.24437 -9.2996,1.59506 -4.41607,2.21191 -4.8843,9.1261 -0.84802,12.5224 1.74775,1.47064 4.80324,2.34784 6.69325,1.92157 1.76266,-0.39754 2.17604,-0.67902 5.86554,-3.99405 3.26735,-2.93573 3.561,-2.6573 1.58396,1.50183 -0.87708,1.84513 -2.17933,3.59051 -4.14926,5.56116 -3.46527,3.46655 -6.21352,4.72226 -10.41702,4.75964 -2.31497,0.0206 -3.11251,-0.18572 -5.74204,-1.4853 -3.45149,-1.70582 -5.68724,-3.944 -7.25857,-7.26643 -2.75503,-5.82526 -2.56925,-11.97098 0.56139,-18.5708 2.68032,-5.65048 7.42474,-9.75306 14.34933,-12.40811 3.64394,-1.39716 9.44072,-2.6653 14.94645,-3.26976 4.06379,-0.44615 10.8755,-1.96769 15.78742,-3.52645 4.10194,-1.30171 10.55475,-4.39739 10.86805,-5.21384 0.41625,-1.08473 -0.17271,-1.80614 -1.69781,-2.07959 -4.36231,-0.78219 -8.96505,-4.67157 -10.61227,-8.96752 -1.80974,-4.7198 -1.38984,-10.82813 1.00514,-14.62202 2.17486,-3.4452 6.57888,-6.20639 9.97366,-6.25318 1.3301,-0.0183 2.40404,0.29898 3.84565,1.13626 4.32216,2.51025 6.42112,3.44687 7.72452,3.44687 0.74787,0 1.35691,-0.13663 1.35342,-0.30361 -0.0112,-0.53442 -7.10968,-4.97188 -9.26107,-5.78934 -2.70787,-1.02891 -5.74024,-0.99899 -8.96022,0.0884 -2.18427,0.73764 -3.04994,1.33967 -5.44228,3.78487 -4.49849,4.5979 -4.29966,4.52927 -8.78275,3.03196 -3.64977,-1.21898 -12.22056,-5.4455 -15.4893,-7.63825 -3.32638,-2.23141 -8.98825,-10.26086 -11.45707,-16.24797 -2.24981,-5.45599 -2.58681,-7.31759 -2.79637,-15.44718 -0.20788,-8.06433 0.28801,-12.65352 1.96142,-18.151689 0.9795,-3.218261 4.02616,-10.339865 5.71488,-13.358585 0.68502,-1.224537 4.87229,-9.50356 9.30503,-18.397832 7.64383,-15.337307 8.05015,-16.268983 7.87773,-18.063332 -0.1,-1.040562 -0.57636,-2.446057 -1.05861,-3.123323 -1.96343,-2.757382 -7.48201,-3.974165 -10.58652,-2.334205 -2.94577,1.556108 -3.75572,3.386649 -4.28871,9.69271 l -0.27,3.194507 -1.75864,-2.789702 c -1.74513,-2.768263 -2.99318,-6.724315 -2.99318,-9.487727 0,-3.211898 3.80135,-7.751938 8.26366,-9.869488 7.64748,-3.629041 14.09767,-3.539527 19.06072,0.264518 4.06667,3.11699 5.86968,7.505275 5.86968,14.285997 0,4.90992 -0.52619,7.898284 -3.0352,17.237532 -2.54547,9.474984 -3.16541,11.184527 -7.98573,22.021581 -4.22133,9.49038 -5.55502,15.051458 -5.56734,23.214018 -0.0118,7.79871 1.05063,11.3791 4.8824,16.45424 2.67751,3.54633 8.9001,7.8964 11.29547,7.8964 0.6938,0 2.0582,-1.57368 2.53403,-2.92271 0.0565,-0.16031 3.19957,0.23757 6.9845,0.88418 11.95199,2.04185 23.12931,3.2398 30.36042,3.25394 2.22643,0.004 4.73117,0.12083 5.56608,0.25883 l 1.51802,0.25091 7.4e-4,32.83749 7.4e-4,32.83749 h -2.30625 -2.30625 l -2.97369,3.44085 c -6.25458,7.23715 -7.64609,11.73926 -5.76385,18.64844 1.67363,6.14343 2.11872,9.08857 2.13703,14.14081 0.022,6.058 -0.57297,8.6986 -3.19216,14.1682 -3.20404,6.69092 -5.88371,8.57304 -12.51588,8.79079 -3.13909,0.10307 -4.51045,-0.0319 -6.1073,-0.60115 z m 2.21195,-92.04582 c 4.14623,-1.55571 7.92609,-3.07867 8.39969,-3.38436 1.30952,-0.84522 1.50995,-2.38501 0.58318,-4.48015 l -0.80571,-1.82145 -2.03971,0.21843 c -1.12183,0.12013 -2.92482,0.31237 -4.00664,0.42719 -2.53698,0.26928 -7.80005,2.05504 -12.52016,4.2481 -3.63285,1.6879 -3.72915,1.76823 -3.72915,3.11085 0,1.8409 0.98038,3.63642 2.48524,4.55158 1.51524,0.92147 1.55209,0.91237 11.63326,-2.87019 z"
       id="path57" /><path
       style="fill:#b4d0e4;fill-opacity:1;stroke-width:0.404806"
       d="m 381.41549,183.37688 c -3.25026,-0.58908 -7.60066,-2.06195 -12.19977,-4.13033 -8.37748,-3.76767 -16.47727,-11.2747 -21.61693,-20.03496 -4.24928,-7.24266 -6.54904,-13.95048 -8.16117,-23.80412 -1.21557,-7.42971 -3.74365,-10.72601 -7.45898,-9.72558 -2.1365,0.5753 -3.31772,1.60268 -4.64364,4.03883 l -1.13141,2.07877 1.24621,4.13163 c 0.96368,3.1949 1.4941,4.31517 2.33957,4.94123 0.60135,0.44529 1.74124,1.41629 2.5331,2.15778 l 1.43975,1.34817 -2.42883,-0.23827 c -4.87525,-0.47828 -10.16082,-4.04488 -12.3414,-8.32775 -1.35621,-2.66372 -2.5171,-7.61916 -2.21237,-9.44383 0.46363,-2.77619 1.82789,-5.20109 4.25216,-7.55803 2.76799,-2.69111 5.25679,-3.99724 8.48654,-4.45376 6.15044,-0.86936 11.86782,1.36238 16.86121,6.58168 4.13261,4.31958 5.96924,8.03253 8.00502,16.1831 0.89853,3.5974 1.9318,6.59326 2.92759,8.48823 5.0725,9.653 17.53037,16.4288 33.41576,18.17475 l 4.56477,0.50171 v 2.66371 c 0,3.59238 0.96266,5.42165 5.4561,10.36773 1.99499,2.19596 3.55202,4.06789 3.46006,4.15984 -0.33638,0.33638 -5.79811,1.35431 -10.31759,1.92295 -5.54508,0.69768 -8.52775,0.69206 -12.47575,-0.0235 z"
       id="path58" /><path
       style="fill:#b4d0e4;fill-opacity:1;stroke-width:0.404806"
       d="m 432.12998,133.92226 c -4.07666,-0.2515 -11.43726,-1.0131 -15.34017,-1.58724 -3.39109,-0.49885 -16.18594,-3.20232 -19.18572,-4.05381 -0.94583,-0.26848 -2.35181,-2.39372 -1.80393,-2.72679 0.16617,-0.10101 2.71439,0.42363 5.66271,1.16587 9.40703,2.36822 24.52632,4.47351 34.91757,4.8621 8.70433,0.32551 9.31053,0.43121 9.31053,1.62346 v 0.98721 l -5.76848,-0.073 c -3.17267,-0.0401 -6.67929,-0.12915 -7.79251,-0.19783 z"
       id="path59" /><path
       style="fill:#b4d0e4;fill-opacity:1;stroke-width:0.404806"
       d="m 429.49874,129.8683 c -7.69708,-0.57152 -17.14454,-2.17783 -28.08928,-4.77589 -0.24723,-0.0587 -1.06035,-0.24754 -1.80694,-0.41966 -2.26859,-0.52302 -2.99351,-2.16443 -2.67847,-6.06471 0.14388,-1.78114 0.32797,-3.3057 0.4091,-3.38789 0.0811,-0.0822 2.47874,0.4058 5.328,1.08444 12.61844,3.00547 25.96744,4.92047 34.36832,4.93035 2.02679,0.002 4.80476,0.12137 6.17328,0.26441 l 2.48822,0.26007 v 4.19279 4.19279 l -7.1853,-0.0707 c -3.95192,-0.0389 -8.00503,-0.13159 -9.00693,-0.20598 z"
       id="path60" /><path
       style="fill:#b4d0e4;fill-opacity:1;stroke-width:0.404806"
       d="m 430.51076,119.35279 c -9.577,-0.77583 -23.25865,-3.20635 -29.40483,-5.22371 -1.84978,-0.60715 -1.88774,-0.65501 -2.52178,-3.17913 -0.35405,-1.40949 -0.91856,-4.99925 -1.25447,-7.97725 -0.3359,-2.978003 -0.80151,-6.807279 -1.0347,-8.509504 -0.42152,-3.077108 -0.41661,-3.107453 0.8512,-5.262473 2.14258,-3.641957 2.96481,-3.684289 4.62338,-0.238032 1.17944,2.450708 5.55892,9.834708 9.11283,15.364679 l 1.7488,2.72116 2.03195,-1.10194 c 1.36132,-0.73826 5.78243,-4.84277 13.39576,-12.436496 6.25009,-6.234006 11.76371,-11.897142 12.25248,-12.584746 l 0.88868,-1.25019 -3.2651,-4.549663 -3.2651,-4.549663 1.55076,-2.251633 c 1.81126,-2.629875 6.17347,-7.550551 6.84461,-7.720894 0.25469,-0.06464 0.94968,0.06747 1.54441,0.293585 l 1.08133,0.41112 v 16.823695 c 0,16.507653 -0.0147,16.815822 -0.783,16.404646 -1.36046,-0.728095 -2.33418,-0.461645 -3.60585,0.986706 -3.24552,3.696449 -2.64083,11.178543 1.07586,13.312013 1.08504,0.62285 1.53111,0.68447 2.32763,0.32155 l 0.98536,-0.44896 v 5.4562 5.4562 l -6.7805,-0.068 c -3.72927,-0.0374 -7.50914,-0.12708 -8.39971,-0.19922 z"
       id="path61" /><path
       style="fill:#b4d0e4;fill-opacity:1;stroke-width:0.404806"
       d="m 411.56043,98.273507 c -0.8208,-1.749083 -1.49236,-3.464445 -1.49236,-3.811915 0,-0.347471 1.47534,-2.668774 3.27853,-5.158452 3.60767,-4.981138 3.69809,-5.388517 1.75995,-7.929549 -1.80568,-2.367358 -1.23027,-4.369409 2.00445,-6.974211 2.99754,-2.41381 3.17271,-2.43759 5.4799,-0.743952 4.75589,3.491141 5.19165,5.336618 2.05018,8.682703 -1.11322,1.185724 -2.02403,2.325921 -2.02403,2.533772 0,0.207852 0.81973,1.209406 1.82162,2.225677 2.36417,2.398089 2.38038,3.376895 0.0783,4.726008 -0.95884,0.561913 -2.88495,2.401805 -4.28026,4.088648 -2.77962,3.360395 -4.55393,4.885374 -6.14625,5.282574 -0.96945,0.24183 -1.13581,0.0497 -2.53003,-2.921303 z"
       id="path62" /></g></svg>
